<svg xmlns="http://www.w3.org/2000/svg" xmlns:xlink="http://www.w3.org/1999/xlink" preserveAspectRatio="xMidYMid meet" version="1.0" viewBox="132.5 160.3 200.6 270.3" zoomAndPan="magnify" style="fill: rgb(0, 0, 0);" original_string_length="6010"><g><g id="__id136_s5pzt2bni"><path d="M226.08,430.56c-2.71,0-5.43-0.18-8.08-0.55c-0.95-0.13-1.61-1-1.48-1.95c0.13-0.95,1.01-1.61,1.95-1.48 c4.36,0.59,8.86,0.67,13.39,0.23c0.94-0.1,1.79,0.6,1.89,1.55c0.09,0.95-0.6,1.79-1.55,1.89 C230.14,430.46,228.09,430.56,226.08,430.56z M245.54,427.53c-0.74,0-1.43-0.48-1.65-1.23c-0.28-0.91,0.24-1.88,1.15-2.16 c4.1-1.24,8.35-2.91,12.61-4.94c0.86-0.41,1.89-0.05,2.3,0.81c0.41,0.86,0.05,1.89-0.82,2.3c-4.42,2.11-8.83,3.84-13.1,5.13 C245.88,427.51,245.71,427.53,245.54,427.53z M270.5,415.82c-0.58,0-1.14-0.29-1.47-0.81c-0.5-0.81-0.26-1.88,0.55-2.38 c3.65-2.27,7.45-4.87,11.29-7.73c0.77-0.57,1.85-0.41,2.42,0.36c0.57,0.77,0.41,1.85-0.36,2.42c-3.92,2.91-7.79,5.56-11.52,7.89 C271.12,415.73,270.81,415.82,270.5,415.82z M292.73,399.42c-0.49,0-0.98-0.21-1.32-0.61c-0.61-0.73-0.52-1.82,0.21-2.43 c3.61-3.04,7.02-6.14,10.14-9.2c0.68-0.67,1.77-0.66,2.44,0.02c0.67,0.68,0.66,1.78-0.02,2.44c-3.18,3.12-6.66,6.28-10.33,9.38 C293.52,399.29,293.13,399.42,292.73,399.42z M312.38,380c-0.39,0-0.79-0.13-1.11-0.4c-0.73-0.61-0.83-1.7-0.21-2.43 c3.05-3.64,5.77-7.32,8.08-10.93c0.51-0.8,1.58-1.04,2.39-0.52c0.8,0.51,1.04,1.58,0.52,2.39c-2.39,3.74-5.2,7.54-8.34,11.29 C313.36,379.79,312.87,380,312.38,380z M327.04,356.69c-0.22,0-0.45-0.04-0.66-0.13c-0.88-0.37-1.3-1.38-0.93-2.26 c1.79-4.3,3.05-8.63,3.74-12.85c0.15-0.94,1.05-1.58,1.98-1.43c0.94,0.16,1.58,1.04,1.42,1.99c-0.74,4.49-2.07,9.07-3.96,13.62 C328.36,356.29,327.72,356.69,327.04,356.69z M331.27,329.68c-0.87,0-1.62-0.65-1.71-1.54c-0.08-0.75-0.19-1.51-0.31-2.27 c-0.57-3.53-1.57-7.11-2.97-10.63c-0.35-0.89,0.08-1.89,0.96-2.25c0.88-0.35,1.89,0.08,2.24,0.97c1.5,3.76,2.57,7.58,3.18,11.36 c0.13,0.81,0.24,1.63,0.33,2.44c0.11,0.95-0.58,1.8-1.52,1.91C331.4,329.68,331.33,329.68,331.27,329.68z M321.42,304.13 c-0.56,0-1.11-0.27-1.45-0.78c-2.28-3.48-4.97-7.02-8.22-10.83c-0.62-0.73-0.53-1.82,0.19-2.44c0.73-0.62,1.82-0.53,2.44,0.19 c3.34,3.92,6.12,7.58,8.48,11.18c0.52,0.8,0.3,1.87-0.5,2.39C322.08,304.04,321.75,304.13,321.42,304.13z M303.73,282.94 c-0.45,0-0.9-0.18-1.24-0.53c-1.37-1.41-2.74-2.81-4.1-4.19l-5.58-5.66c-0.67-0.68-0.66-1.77,0.02-2.44 c0.68-0.67,1.77-0.66,2.44,0.02l5.58,5.66c1.37,1.39,2.75,2.8,4.12,4.22c0.66,0.69,0.65,1.78-0.04,2.44 C304.59,282.78,304.16,282.94,303.73,282.94z M284.34,263.24c-0.45,0-0.89-0.17-1.23-0.52l-9.7-9.84 c-0.67-0.68-0.66-1.77,0.02-2.44c0.68-0.67,1.77-0.66,2.44,0.02l9.7,9.84c0.67,0.68,0.66,1.77-0.02,2.44 C285.21,263.07,284.78,263.24,284.34,263.24z M264.93,243.55c-0.45,0-0.89-0.17-1.23-0.51l-1.97-1.99 c-2.63-2.67-5.2-5.3-7.61-8.15c-0.62-0.73-0.53-1.82,0.2-2.44c0.73-0.62,1.82-0.53,2.44,0.2c2.34,2.75,4.85,5.34,7.44,7.96 l1.96,1.99c0.67,0.68,0.66,1.77-0.02,2.44C265.81,243.38,265.37,243.55,264.93,243.55z M247.9,221.97c-0.67,0-1.3-0.39-1.58-1.03 c-0.88-2-1.54-4.04-1.98-6.07c-0.42-1.97-0.64-4.02-0.64-6.08c0-0.71,0.03-1.43,0.07-2.14c0.07-0.95,0.91-1.68,1.84-1.6 c0.95,0.07,1.67,0.89,1.6,1.84c-0.04,0.63-0.07,1.26-0.07,1.9c0,1.82,0.19,3.62,0.56,5.36c0.38,1.8,0.98,3.61,1.76,5.41 c0.38,0.87-0.02,1.89-0.89,2.28C248.37,221.93,248.13,221.97,247.9,221.97z M250.98,197.94c-3.04,0-6.04-0.07-9.09-0.21 c-0.95-0.04-1.69-0.85-1.64-1.81c0.04-0.95,0.82-1.69,1.81-1.64c1.93,0.09,3.86,0.15,5.78,0.18c-0.28-0.49-0.32-1.11-0.04-1.65 c2.14-4.16,5.11-8.13,8.58-11.47c0.69-0.66,1.78-0.64,2.44,0.04c0.66,0.69,0.64,1.78-0.04,2.44c-3.2,3.09-5.94,6.74-7.91,10.57 c-0.02,0.03-0.03,0.06-0.05,0.09c0.05,0,0.11,0,0.16,0c1.59,0,3.18-0.02,4.77-0.07c0.92-0.07,1.75,0.73,1.77,1.68 c0.03,0.95-0.73,1.75-1.68,1.77C254.23,197.91,252.6,197.94,250.98,197.94z M269.58,196.94c-0.87,0-1.62-0.66-1.72-1.54 c-0.1-0.95,0.58-1.8,1.53-1.91c4.59-0.5,9.13-1.2,13.5-2.09c0.93-0.18,1.85,0.42,2.04,1.35c0.19,0.93-0.42,1.85-1.35,2.04 c-4.47,0.9-9.12,1.62-13.81,2.13C269.71,196.93,269.65,196.94,269.58,196.94z M228.21,196.59c-0.07,0-0.14,0-0.2-0.01 c-4.47-0.52-9.11-1.21-13.77-2.03c-0.94-0.17-1.57-1.06-1.4-2c0.17-0.94,1.06-1.56,2-1.4c4.6,0.81,9.17,1.48,13.57,2 c0.95,0.11,1.63,0.97,1.52,1.92C229.82,195.94,229.07,196.59,228.21,196.59z M200.99,191.83c-0.13,0-0.26-0.01-0.38-0.04 c-4.34-0.99-8.88-2.12-13.48-3.37c-0.92-0.25-1.47-1.2-1.22-2.12c0.25-0.92,1.2-1.46,2.12-1.22c4.56,1.23,9.05,2.36,13.34,3.33 c0.93,0.21,1.51,1.14,1.3,2.07C202.49,191.29,201.78,191.83,200.99,191.83z M296.63,191.43c-0.74,0-1.42-0.48-1.65-1.22 c-0.28-0.91,0.23-1.88,1.14-2.16c4.39-1.36,8.69-2.94,12.78-4.72c0.88-0.38,1.89,0.02,2.27,0.9c0.38,0.88-0.02,1.89-0.9,2.27 c-4.21,1.82-8.63,3.46-13.14,4.85C296.97,191.41,296.8,191.43,296.63,191.43z M174.3,184.65c-0.17,0-0.34-0.02-0.5-0.08 c-4.19-1.28-8.51-2.65-13.21-4.2c-0.91-0.3-1.4-1.28-1.1-2.18c0.3-0.91,1.28-1.39,2.18-1.1c4.67,1.54,8.97,2.91,13.13,4.18 c0.91,0.28,1.43,1.24,1.15,2.16C175.72,184.17,175.04,184.65,174.3,184.65z M321.92,180.41c-0.59,0-1.17-0.3-1.49-0.85 c-0.48-0.82-0.21-1.88,0.62-2.36c0.55-0.32,1.1-0.65,1.64-0.98c0-0.04,0-0.08,0-0.12c0-2.63-1.23-5.3-3.45-7.53 c-0.67-0.67-0.68-1.77,0-2.44c0.67-0.68,1.77-0.68,2.44,0c2.88,2.88,4.47,6.42,4.47,9.97c0,0.43-0.02,0.87-0.07,1.31l-0.09,0.84 l-0.72,0.44c-0.82,0.51-1.64,1-2.47,1.49C322.52,180.33,322.22,180.41,321.92,180.41z M324.35,177.21h0.01H324.35z M268.7,176.15 c-0.6,0-1.19-0.31-1.5-0.87c-0.47-0.83-0.18-1.88,0.65-2.36c3.75-2.13,7.93-4.06,12.79-5.89c0.89-0.34,1.89,0.11,2.23,1.01 c0.34,0.89-0.11,1.89-1.01,2.23c-4.69,1.77-8.71,3.62-12.3,5.66C269.28,176.08,268.99,176.15,268.7,176.15z M294.37,166.07 c-0.75,0-1.44-0.49-1.66-1.25c-0.26-0.92,0.27-1.87,1.19-2.14c3.88-1.11,9.07-2.39,14.14-2.19c0.95,0.04,1.7,0.84,1.66,1.79 c-0.04,0.95-0.83,1.72-1.79,1.66c-4.6-0.17-9.42,1.02-13.06,2.06C294.69,166.05,294.53,166.07,294.37,166.07z" style="fill: rgb(113, 196, 23);"/></g><g><g id="__id137_s5pzt2bni"><path d="M132.47,168.82c10.47-0.21,24.01-2.07,33.3-5.81l-11.02,13.57l0.21,17.47 C150,185.36,140.54,175.49,132.47,168.82z" style="fill: rgb(113, 196, 23);"/></g></g></g></svg>