<svg xmlns="http://www.w3.org/2000/svg" xmlns:xlink="http://www.w3.org/1999/xlink" preserveAspectRatio="xMidYMid meet" version="1.0" viewBox="64.2 209.1 387.8 65.3" zoomAndPan="magnify" style="fill: rgb(0, 0, 0);" original_string_length="4646"><g><g id="__id132_s5pzt2bni"><path d="M66.08,274.36c-1.03,0-1.86-0.83-1.87-1.86c-0.01-1.03,0.83-1.87,1.86-1.88l14.94-0.08c0,0,0.01,0,0.01,0 c1.03,0,1.86,0.83,1.87,1.86c0.01,1.03-0.83,1.87-1.86,1.88l-14.94,0.08C66.09,274.36,66.09,274.36,66.08,274.36z M95.97,274.19 c-1.03,0-1.86-0.83-1.87-1.86c-0.01-1.03,0.83-1.87,1.86-1.88l14.94-0.08c0,0,0.01,0,0.01,0c1.03,0,1.86,0.83,1.87,1.86 c0.01,1.03-0.83,1.87-1.86,1.88l-14.94,0.08C95.97,274.19,95.97,274.19,95.97,274.19z M125.85,274.02c-1.03,0-1.86-0.83-1.87-1.86 c-0.01-1.03,0.83-1.87,1.86-1.88l14.94-0.08c0,0,0.01,0,0.01,0c1.03,0,1.86,0.83,1.87,1.86c0.01,1.03-0.83,1.87-1.86,1.88 l-14.94,0.08C125.86,274.02,125.85,274.02,125.85,274.02z M155.74,273.85c-1.03,0-1.86-0.83-1.87-1.86 c-0.01-1.03,0.83-1.87,1.86-1.88l14.94-0.08c0,0,0.01,0,0.01,0c1.03,0,1.86,0.83,1.87,1.86c0.01,1.03-0.83,1.87-1.86,1.88 l-14.94,0.08C155.74,273.85,155.74,273.85,155.74,273.85z M185.62,273.68c-1.03,0-1.86-0.83-1.87-1.86 c-0.01-1.03,0.83-1.87,1.86-1.88l14.94-0.08c0,0,0.01,0,0.01,0c1.03,0,1.86,0.83,1.87,1.86c0.01,1.03-0.83,1.87-1.86,1.88 l-14.94,0.08C185.63,273.68,185.62,273.68,185.62,273.68z M215.5,273.52c-1.03,0-1.86-0.83-1.87-1.86 c-0.01-1.03,0.83-1.87,1.86-1.88l14.94-0.08c0,0,0.01,0,0.01,0c1.03,0,1.86,0.83,1.87,1.86c0.01,1.03-0.83,1.87-1.86,1.88 l-14.94,0.08C215.51,273.52,215.51,273.52,215.5,273.52z M245.39,273.34c-1.02,0-1.86-0.82-1.87-1.85 c-0.01-1.03,0.82-1.88,1.85-1.89c4.06-0.04,9.41-0.12,14.87-0.38c1.05-0.04,1.91,0.75,1.95,1.78c0.05,1.03-0.75,1.91-1.78,1.95 c-5.52,0.26-10.92,0.34-15.01,0.38C245.4,273.34,245.39,273.34,245.39,273.34z M275.21,271.72c-0.93,0-1.73-0.69-1.85-1.63 c-0.13-1.02,0.59-1.96,1.62-2.09c5.25-0.67,9.97-1.55,14.45-2.69c1-0.25,2.02,0.35,2.27,1.35c0.26,1-0.35,2.02-1.34,2.27 c-4.63,1.19-9.51,2.1-14.91,2.78C275.37,271.71,275.29,271.72,275.21,271.72z M372.46,271.47c-1.45,0-2.9-0.03-4.34-0.08 c-1.03-0.04-1.84-0.9-1.8-1.94c0.04-1.03,0.92-1.81,1.93-1.8c4.89,0.18,9.82,0.04,14.69-0.4c1.01-0.1,1.93,0.66,2.03,1.69 c0.09,1.03-0.66,1.94-1.69,2.03C379.7,271.3,376.06,271.47,372.46,271.47z M353.33,269.87c-0.1,0-0.21-0.01-0.31-0.03 c-5.02-0.85-9.99-2.04-14.77-3.53c-0.98-0.31-1.53-1.36-1.22-2.34c0.31-0.98,1.35-1.53,2.34-1.23c4.62,1.44,9.42,2.59,14.27,3.41 c1.02,0.17,1.7,1.14,1.53,2.15C355.02,269.23,354.23,269.87,353.33,269.87z M397.86,268.66c-0.85,0-1.63-0.59-1.82-1.46 c-0.22-1.01,0.41-2.01,1.41-2.23c4.8-1.08,9.54-2.47,14.08-4.16c0.97-0.36,2.04,0.14,2.4,1.1c0.36,0.97-0.14,2.04-1.1,2.4 c-4.7,1.74-9.6,3.19-14.56,4.3C398.13,268.65,398,268.66,397.86,268.66z M303.99,264.08c-0.71,0-1.39-0.41-1.7-1.1 c-0.43-0.94-0.01-2.05,0.93-2.47c2.88-1.31,5.65-2.8,8.24-4.43c0.65-0.41,1.31-0.84,1.96-1.28c-0.84-0.54-1.66-1.08-2.47-1.64 c-0.85-0.58-1.07-1.75-0.49-2.6c0.58-0.85,1.75-1.07,2.6-0.48c1.4,0.96,2.84,1.89,4.31,2.78c0.31,0.09,0.59,0.26,0.83,0.5 c2.44,1.45,4.96,2.8,7.55,4.04c0.93,0.45,1.32,1.56,0.88,2.49c-0.45,0.93-1.56,1.32-2.49,0.87c-2.46-1.18-4.88-2.46-7.22-3.83 c-1.14,0.82-2.29,1.59-3.44,2.32c-2.73,1.72-5.65,3.3-8.68,4.67C304.51,264.02,304.25,264.08,303.99,264.08z M425.79,258.29 c-0.66,0-1.31-0.36-1.64-0.98c-0.49-0.91-0.15-2.04,0.76-2.53c3.16-1.7,6.22-3.58,9.12-5.58c0.85-0.58,2.01-0.37,2.6,0.48 c0.59,0.85,0.37,2.01-0.48,2.6c-3.01,2.07-6.19,4.02-9.47,5.79C426.4,258.22,426.09,258.29,425.79,258.29z M328.01,246.62 c-0.47,0-0.94-0.18-1.3-0.53c-0.74-0.72-0.75-1.9-0.03-2.64c2.98-3.06,6.1-6.57,9.81-11.06c0.66-0.8,1.83-0.91,2.63-0.25 c0.8,0.66,0.91,1.83,0.25,2.63c-3.78,4.57-6.96,8.16-10.01,11.29C328.98,246.43,328.49,246.62,328.01,246.62z M300.4,244.07 c-0.47,0-0.94-0.18-1.3-0.53c-3.07-2.99-7.26-7.65-8.15-13.62c-0.15-1.02,0.55-1.97,1.57-2.12c1.03-0.15,1.97,0.55,2.12,1.57 c0.55,3.69,2.79,7.34,7.06,11.49c0.74,0.72,0.76,1.9,0.04,2.64C301.37,243.88,300.89,244.07,300.4,244.07z M338.61,224.68 c-0.41,0-0.83-0.14-1.17-0.42c-4.67-3.77-8.38-6.27-12.04-8.1c-0.92-0.46-1.3-1.58-0.84-2.51c0.46-0.92,1.59-1.3,2.5-0.84 c3.91,1.95,7.83,4.58,12.72,8.54c0.8,0.65,0.93,1.82,0.28,2.63C339.7,224.45,339.16,224.68,338.61,224.68z M298.25,218.31 c-0.52,0-1.04-0.22-1.41-0.64c-0.68-0.78-0.59-1.96,0.18-2.64c4.02-3.5,9.39-5.66,14.75-5.93c1.06-0.05,1.91,0.74,1.96,1.77 c0.05,1.03-0.74,1.91-1.77,1.96c-4.48,0.23-9.15,2.1-12.49,5.01C299.12,218.16,298.69,218.31,298.25,218.31z" style="fill: rgb(98, 169, 215);"/></g><g><g id="__id133_s5pzt2bni"><path d="M452,235.84c-5.47,9.9-11.07,23.58-12.62,34.29l-6.72-17.66l-16.46-9.27 C427.04,243.27,441.39,239.78,452,235.84z" style="fill: rgb(98, 169, 215);"/></g></g></g></svg>