<svg xmlns="http://www.w3.org/2000/svg" xmlns:xlink="http://www.w3.org/1999/xlink" preserveAspectRatio="xMidYMid meet" version="1.0" viewBox="22.0 28.4 54.9 57.0" zoomAndPan="magnify" style="fill: rgb(0, 0, 0);" original_string_length="3338"><g><g id="__id128_s5pzt2bni"><path d="M27.35,77.71c-0.12,0-0.25-0.02-0.37-0.07c-0.51-0.2-0.77-0.78-0.56-1.3c0.38-0.97,0.85-1.92,1.38-2.83 c0.28-0.48,0.89-0.64,1.37-0.36c0.48,0.28,0.64,0.89,0.36,1.37c-0.48,0.82-0.9,1.68-1.25,2.55 C28.12,77.47,27.75,77.71,27.35,77.71z M32.4,70.35c-0.27,0-0.53-0.11-0.73-0.32c-0.38-0.4-0.36-1.04,0.05-1.41 c0.76-0.71,1.58-1.38,2.44-1.98c0.45-0.32,1.08-0.21,1.39,0.24c0.32,0.45,0.21,1.08-0.24,1.39c-0.78,0.55-1.53,1.15-2.22,1.8 C32.89,70.27,32.65,70.35,32.4,70.35z M60.83,66.38c-0.03,0-0.06,0-0.1,0c-0.91-0.09-1.87-0.21-3.03-0.37 c-0.55-0.08-0.92-0.59-0.84-1.13c0.08-0.55,0.58-0.93,1.13-0.84c1.12,0.16,2.05,0.28,2.93,0.36c0.55,0.05,0.95,0.54,0.9,1.09 C61.78,66,61.34,66.38,60.83,66.38z M66.82,66.34c-0.49,0-0.92-0.37-0.99-0.87c-0.07-0.55,0.31-1.05,0.86-1.12 c0.98-0.13,1.89-0.34,2.72-0.64c0.52-0.18,1.09,0.09,1.28,0.61c0.18,0.52-0.09,1.09-0.61,1.28c-0.95,0.34-2,0.58-3.12,0.73 C66.91,66.34,66.86,66.34,66.82,66.34z M40.06,65.75c-0.42,0-0.81-0.26-0.95-0.68c-0.18-0.52,0.1-1.09,0.63-1.27 c1-0.34,2.02-0.6,3.05-0.78c0.55-0.1,1.06,0.27,1.16,0.81c0.1,0.54-0.27,1.06-0.81,1.16c-0.92,0.16-1.85,0.4-2.76,0.71 C40.27,65.73,40.17,65.75,40.06,65.75z M51.93,65.1c-0.05,0-0.09,0-0.14-0.01c-1.08-0.15-2.04-0.25-2.92-0.32 c-0.55-0.04-0.96-0.52-0.92-1.07c0.04-0.55,0.51-0.97,1.07-0.92c0.93,0.07,1.92,0.17,3.04,0.33c0.55,0.08,0.93,0.58,0.86,1.13 C52.85,64.73,52.42,65.1,51.93,65.1z M74.38,62.07c-0.17,0-0.35-0.04-0.51-0.14c-0.48-0.28-0.63-0.89-0.35-1.37 c0.42-0.71,0.74-1.53,0.97-2.51c0.13-0.54,0.67-0.87,1.2-0.74c0.54,0.13,0.87,0.67,0.74,1.2c-0.27,1.16-0.67,2.19-1.19,3.06 C75.06,61.89,74.72,62.07,74.38,62.07z M75.88,53.32c-0.52,0-0.96-0.41-1-0.94c-0.06-0.95-0.18-1.91-0.36-2.85 c-0.1-0.54,0.26-1.07,0.8-1.17c0.54-0.1,1.07,0.26,1.17,0.8c0.19,1.02,0.32,2.06,0.39,3.1c0.03,0.55-0.38,1.03-0.94,1.06 C75.92,53.32,75.9,53.32,75.88,53.32z M73.72,44.63c-0.38,0-0.74-0.22-0.91-0.59c-0.4-0.88-0.85-1.73-1.34-2.55 c-0.29-0.47-0.14-1.09,0.34-1.37c0.47-0.28,1.09-0.14,1.37,0.34c0.54,0.88,1.02,1.81,1.45,2.76c0.23,0.5,0,1.1-0.5,1.32 C73.99,44.61,73.85,44.63,73.72,44.63z M68.6,37.29c-0.25,0-0.5-0.09-0.7-0.28c-0.68-0.66-1.41-1.29-2.18-1.87 c-0.44-0.33-0.53-0.96-0.2-1.4c0.33-0.44,0.96-0.53,1.4-0.2c0.83,0.63,1.63,1.31,2.37,2.03c0.4,0.38,0.4,1.02,0.02,1.41 C69.12,37.19,68.86,37.29,68.6,37.29z M61.14,32.35c-0.13,0-0.26-0.03-0.39-0.08c-0.88-0.38-1.8-0.7-2.71-0.96 c-0.53-0.15-0.84-0.71-0.68-1.24c0.15-0.53,0.71-0.84,1.24-0.68c0.99,0.29,1.98,0.64,2.94,1.04c0.51,0.22,0.75,0.8,0.53,1.31 C61.9,32.13,61.53,32.35,61.14,32.35z M49.41,30.47c-0.51,0-0.95-0.39-1-0.91c-0.05-0.55,0.36-1.04,0.91-1.08 c1.04-0.09,2.09-0.12,3.12-0.08c0.55,0.02,0.98,0.49,0.96,1.04c-0.02,0.55-0.48,1-1.04,0.96c-0.95-0.04-1.91-0.01-2.87,0.07 C49.47,30.46,49.44,30.47,49.41,30.47z" style="fill: rgb(98, 169, 215);"/></g><g id="__id129_s5pzt2bni"><path d="M24.18,85.4c-0.14,0-0.29-0.03-0.42-0.09c-0.31-0.15-0.53-0.44-0.57-0.78l-1.13-9.15 c-0.07-0.55,0.32-1.05,0.87-1.11c0.55-0.08,1.05,0.32,1.11,0.87l0.93,7.56l6.13-3.97c0.46-0.3,1.08-0.17,1.38,0.29 c0.3,0.46,0.17,1.08-0.3,1.38l-7.47,4.84C24.56,85.35,24.37,85.4,24.18,85.4z" style="fill: rgb(98, 169, 215);"/></g></g></svg>